<svg width="176" height="28" viewBox="0 0 176 28" fill="none" xmlns="http://www.w3.org/2000/svg">
<path d="M0.424 1.4H5.8V27H0.424V1.4ZM11.912 27L4.776 14.648L12.648 1.4H18.44L10.728 14.392L17.992 27H11.912ZM21.6143 27V21.88H27.9183V6.52H21.6143V1.4H39.5983V6.52H33.2943V21.88H39.5983V27H21.6143ZM44.3725 27V1.4H54.2605C55.9885 1.4 57.4925 1.73067 58.7725 2.392C60.0525 3.032 61.0445 3.96 61.7485 5.176C62.4738 6.37067 62.8365 7.768 62.8365 9.368C62.8365 10.8613 62.4738 12.1733 61.7485 13.304C61.0232 14.4133 60.0098 15.2773 58.7085 15.896C57.4285 16.5147 55.9458 16.824 54.2605 16.824H49.7805V27H44.3725ZM57.3965 27L51.0285 15.96H56.7885L63.4765 27H57.3965ZM49.7805 12.312H54.1325C55.1565 12.312 55.9565 12.056 56.5325 11.544C57.1298 11.0107 57.4285 10.296 57.4285 9.4C57.4285 8.504 57.1298 7.8 56.5325 7.288C55.9565 6.75467 55.1565 6.488 54.1325 6.488H49.7805V12.312ZM65.1468 27L70.9068 1.4H79.9308L85.6908 27H80.2508L75.5468 5.336H75.0028L70.2348 27H65.1468ZM69.4028 19.512V14.392H81.4348V19.512H69.4028ZM93.953 19.992C94.2303 20.888 94.7103 21.5707 95.393 22.04C96.097 22.5093 96.993 22.744 98.081 22.744C99.233 22.744 100.14 22.4773 100.801 21.944C101.462 21.3893 101.793 20.6427 101.793 19.704C101.793 19.0213 101.558 18.456 101.089 18.008C100.641 17.56 100.012 17.272 99.201 17.144L96.001 16.664C93.7397 16.3013 92.001 15.4587 90.785 14.136C89.569 12.792 88.961 11.0427 88.961 8.888C88.961 7.224 89.3343 5.79467 90.081 4.6C90.8277 3.384 91.8837 2.44533 93.249 1.784C94.6357 1.12266 96.2677 0.791998 98.145 0.791998C100.022 0.791998 101.644 1.12266 103.009 1.784C104.396 2.424 105.473 3.36267 106.241 4.6C107.009 5.816 107.446 7.29867 107.553 9.048H102.497C102.22 7.93867 101.708 7.096 100.961 6.52C100.236 5.944 99.297 5.656 98.145 5.656C96.929 5.656 95.969 5.93333 95.265 6.488C94.5823 7.02133 94.241 7.768 94.241 8.728C94.241 9.41067 94.465 9.98667 94.913 10.456C95.3823 10.904 96.033 11.192 96.865 11.32L100.033 11.8C102.316 12.1627 104.054 13.016 105.249 14.36C106.465 15.6827 107.073 17.4107 107.073 19.544C107.073 21.1867 106.71 22.616 105.985 23.832C105.26 25.048 104.214 25.9867 102.849 26.648C101.505 27.288 99.905 27.608 98.049 27.608C96.193 27.608 94.5823 27.3093 93.217 26.712C91.873 26.1147 90.8063 25.2507 90.017 24.12C89.249 22.968 88.8117 21.592 88.705 19.992H93.953ZM111.239 27V1.4H116.647V11.704H123.815V1.4H129.223V27H123.815V16.824H116.647V27H111.239ZM142.638 27.608C139.331 27.608 136.824 26.4773 135.118 24.216C133.411 21.9547 132.558 18.616 132.558 14.2C132.558 9.784 133.411 6.44533 135.118 4.184C136.824 1.92266 139.331 0.791998 142.638 0.791998C145.944 0.791998 148.451 1.92266 150.158 4.184C151.864 6.44533 152.718 9.784 152.718 14.2C152.718 18.616 151.864 21.9547 150.158 24.216C148.451 26.4773 145.944 27.608 142.638 27.608ZM142.638 22.68C144.216 22.68 145.39 21.9867 146.158 20.6C146.926 19.192 147.31 17.0587 147.31 14.2C147.31 11.3413 146.926 9.21867 146.158 7.832C145.39 6.424 144.216 5.72 142.638 5.72C141.059 5.72 139.886 6.424 139.118 7.832C138.35 9.21867 137.966 11.3413 137.966 14.2C137.966 17.0587 138.35 19.192 139.118 20.6C139.886 21.9867 141.059 22.68 142.638 22.68ZM156.724 27V1.4H166.484C168.233 1.4 169.769 1.73067 171.092 2.392C172.414 3.05333 173.428 3.98133 174.132 5.176C174.857 6.37067 175.22 7.78933 175.22 9.432C175.22 11.0107 174.857 12.3867 174.132 13.56C173.428 14.712 172.414 15.608 171.092 16.248C169.769 16.888 168.233 17.208 166.484 17.208H162.132V27H156.724ZM162.132 12.344H166.516C167.54 12.344 168.34 12.088 168.916 11.576C169.513 11.064 169.812 10.3493 169.812 9.432C169.812 8.49333 169.513 7.768 168.916 7.256C168.34 6.744 167.54 6.488 166.516 6.488H162.132V12.344Z" fill="#2E54A6"/>
</svg>
